<?xml version="1.0" encoding="UTF-8" standalone="no"?>
<svg
   xmlns:dc="http://purl.org/dc/elements/1.1/"
   xmlns:cc="http://creativecommons.org/ns#"
   xmlns:rdf="http://www.w3.org/1999/02/22-rdf-syntax-ns#"
   xmlns:svg="http://www.w3.org/2000/svg"
   xmlns="http://www.w3.org/2000/svg"
   version="1.1"
   id="svg19139"
   viewBox="0 0 361.5 541.5"
   height="541.5"
   width="361.5">
  <defs
     id="defs19141" />
  <metadata
     id="metadata19144">
    <rdf:RDF>
      <cc:Work
         rdf:about="">
        <dc:format>image/svg+xml</dc:format>
        <dc:type
           rdf:resource="http://purl.org/dc/dcmitype/StillImage" />
        <dc:title></dc:title>
      </cc:Work>
    </rdf:RDF>
  </metadata>
  <g
     transform="translate(0,-510.86225)"
     id="layer1">
    <g
       id="g3044"
       transform="translate(0.75,-0.74993262)"
       style="display:inline">
      <rect
         style="fill:#ffffff;stroke:#000000;stroke-width:2.5;stroke-miterlimit:4;stroke-dasharray:none"
         id="rect6472-33"
         width="359"
         height="539"
         x="0.5"
         y="512.86218"
         ry="29.944447"
         rx="29.944447" />
      <path
         d="m 30,542.36208 -10,35.00001 0,4.99999 12,0 0,10 5,0 0,-10 3,0 0,-4.99999 -3,0 0,-14.99999 -5,0 0,14.99999 -6.8,0 9.99999,-35.00001 z"
         id="rect3980-7-6-2-9-9"
         style="fill:#ff5555;fill-opacity:1;stroke:none" />
      <path
         d="m 330,1022.3622 10,-35.00004 0,-5 -12,0 0,-10 -5,0 0,10 -3,0 0,5 3,0 0,15.00004 5,0 0,-15.00004 6.8,0 -9.99999,35.00004 z"
         id="rect3980-7-6-2-9-9-8"
         style="fill:#ff5555;fill-opacity:1;stroke:none" />
      <path
         style="fill:#ff5555;stroke:none"
         d="m 90,557.36218 c 0,0 6,15 13,25 7,10 17,20 17,20 0,0 -10,10 -17,20 -7,10 -13,25 -13,25 0,0 -6,-15 -13,-25 -7,-10 -17,-20 -17,-20 0,0 10,-10 17,-20 7,-10 13,-25 13,-25"
         id="path3204-24-55" />
      <path
         style="fill:#ff5555;stroke:none"
         d="m 270,557.36218 c 0,0 6,15 13,25 7,10 17,20 17,20 0,0 -10,10 -17,20 -7,10 -13,25 -13,25 0,0 -6,-15 -13,-25 -7,-10 -17,-20 -17,-20 0,0 10,-10 17,-20 7,-10 13,-25 13,-25"
         id="path3204-24-1-32" />
      <path
         style="fill:#ff5555;stroke:none"
         d="m 90,917.36218 c 0,0 6,15 13,25 7,10 17,20 17,20 0,0 -10,10 -17,20 -7,10 -13,25.00002 -13,25.00002 0,0 -6,-15.00002 -13,-25.00002 -7,-10 -17,-20 -17,-20 0,0 10,-10 17,-20 7,-10 13,-25 13,-25"
         id="path3204-24-7-8" />
      <path
         style="fill:#ff5555;stroke:none"
         d="m 270,917.36218 c 0,0 6,15 13,25 7,10 17,20 17,20 0,0 -10,10 -17,20 -7,10 -13,25.00002 -13,25.00002 0,0 -6,-15.00002 -13,-25.00002 -7,-10 -17,-20 -17,-20 0,0 10,-10 17,-20 7,-10 13,-25 13,-25"
         id="path3204-24-4-25" />
      <path
         style="fill:#ff5555;stroke:none"
         d="m 30,602.36218 c 0,0 3,7.5 6.5,12.5 3.5,5 8.5,10 8.5,10 0,0 -5,5 -8.5,10 -3.5,5 -6.5,12.5 -6.5,12.5 0,0 -3,-7.5 -6.5,-12.5 -3.5,-5 -8.5,-10 -8.5,-10 0,0 5,-5 8.5,-10 3.5,-5 6.5,-12.5 6.5,-12.5"
         id="path3204-24-1-0-3" />
      <path
         style="fill:#ff5555;stroke:none"
         d="m 330,917.36218 c 0,0 3,7.5 6.5,12.5 3.5,5 8.5,10 8.5,10 0,0 -5,5 -8.5,10 -3.5,5 -6.5,12.5 -6.5,12.5 0,0 -3,-7.5 -6.5,-12.5 -3.5,-5 -8.5,-10 -8.5,-10 0,0 5,-5 8.5,-10 3.5,-5 6.5,-12.5 6.5,-12.5"
         id="path3204-24-1-9-6" />
    </g>
  </g>
</svg>
