<?xml version="1.0" encoding="UTF-8" standalone="no"?>
<svg
   xmlns:dc="http://purl.org/dc/elements/1.1/"
   xmlns:cc="http://creativecommons.org/ns#"
   xmlns:rdf="http://www.w3.org/1999/02/22-rdf-syntax-ns#"
   xmlns:svg="http://www.w3.org/2000/svg"
   xmlns="http://www.w3.org/2000/svg"
   version="1.1"
   id="svg19139"
   viewBox="0 0 361.5 541.5"
   height="541.5"
   width="361.5">
  <defs
     id="defs19141" />
  <metadata
     id="metadata19144">
    <rdf:RDF>
      <cc:Work
         rdf:about="">
        <dc:format>image/svg+xml</dc:format>
        <dc:type
           rdf:resource="http://purl.org/dc/dcmitype/StillImage" />
        <dc:title></dc:title>
      </cc:Work>
    </rdf:RDF>
  </metadata>
  <g
     transform="translate(0,-510.86225)"
     id="layer1">
    <rect
       style="display:inline;fill:#ffffff;stroke:#000000;stroke-width:2.5;stroke-miterlimit:4;stroke-dasharray:none"
       id="rect6472-68"
       width="359"
       height="539"
       x="1.25"
       y="512.11224"
       ry="29.944447"
       rx="29.944447" />
    <path
       d="m 30.749995,591.61215 c 5.54,0 10,-4.46 10,-10 l 0,-20 0,-10 c 0,-5.54 -4.46,-10 -10,-10 -5.54,0 -10,4.46 -10,10 l 0,10 c 0,5.54 4.46,10 10,10 1.8226,0 3.5315,-0.4986 5,-1.3438 l 0,11.3438 c 0,2.77 -2.23,5 -5,5 -2.77,0 -5,-2.23 -5,-5 l 0,-1 -5,0 0,1 c 0,5.54 4.46,10 10,10 z m 0,-25 c -2.77,0 -5,-2.23 -5,-5 l 0,-10 c 0,-2.77 2.23,-5 5,-5 2.77,0 5,2.23 5,5 l 0,10 c 0,2.77 -2.23,5 -5,5 z"
       id="rect3163-7-1-7-3-0-78"
       style="display:inline;fill:#000000;fill-opacity:1;stroke:none" />
    <path
       d="m 330.74999,971.61215 c -5.54,0 -10,4.46 -10,10.00002 l 0,20.00003 0,10 c 0,5.54 4.46,10 10,10 5.54,0 10,-4.46 10,-10 l 0,-10 c 0,-5.54003 -4.46,-10.00003 -10,-10.00003 -1.8226,0 -3.5315,0.4986 -5,1.3438 l 0,-11.3438 c 0,-2.77 2.23,-5.00002 5,-5.00002 2.77,0 5,2.23002 5,5.00002 l 0,1 5,0 0,-1 c 0,-5.54002 -4.46,-10.00002 -10,-10.00002 z m 0,25.00002 c 2.77,0 5,2.23 5,5.00003 l 0,10 c 0,2.77 -2.23,5 -5,5 -2.77,0 -5,-2.23 -5,-5 l 0,-10 c 0,-2.77003 2.23,-5.00003 5,-5.00003 z"
       id="rect3163-7-1-7-3-0-78-1"
       style="display:inline;fill:#000000;fill-opacity:1;stroke:none" />
    <path
       id="path3037-7-4-1"
       d="m 33.249995,629.61225 c 0.5,2 2.5,7 6,7 4.5,0 6.5,-4 6.5,-9 0,-3.5 -1.28948,-5.80614 -2.5,-8.5 -1.28894,-2.86836 -3.18966,-5.4287 -5,-8 -2.32265,-3.29895 -7.5,-9.5 -7.5,-9.5 0,0 -5.17735,6.20105 -7.5,9.5 -1.81034,2.5713 -3.71106,5.13164 -5,8 -1.21053,2.69386 -2.5,5 -2.5,8.5 0,5 2,9 6.5,9 3.5,0 5.5,-5 6,-7 0.5,-0.5 0.5,0 0.5,0.5 -0.5,4 -0.5,5 -1,8 -0.5,3 -2,8.5 -2,8.5 2.5,-1 7.5,-1 10,0 0,0 -1.5,-5.5 -2,-8.5 -0.5,-3 -0.5,-4 -1,-8 0,-0.5 0,-1 0.5,-0.5 z"
       style="display:inline;fill:#000000;fill-opacity:1;stroke:none" />
    <path
       id="path3037-7-4-7-5"
       d="m 333.24999,933.61225 c 0.5,-2 2.5,-7 6,-7 4.5,0 6.5,4 6.5,9 0,3.5 -1.28947,5.80614 -2.5,8.5 -1.28894,2.86836 -3.18966,5.4287 -5,8 -2.32265,3.29895 -7.5,9.5 -7.5,9.5 0,0 -5.17735,-6.20105 -7.5,-9.5 -1.81034,-2.5713 -3.71106,-5.13164 -5,-8 -1.21053,-2.69386 -2.5,-5 -2.5,-8.5 0,-5 2,-9 6.5,-9 3.5,0 5.5,5 6,7 0.5,0.5 0.5,0 0.5,-0.5 -0.5,-4 -0.5,-5 -1,-8 -0.5,-3 -2,-8.5 -2,-8.5 2.5,1 7.5,1 10,0 0,0 -1.5,5.5 -2,8.5 -0.5,3 -0.5,4 -1,8 0,0.5 0,1 0.5,0.5 z"
       style="display:inline;fill:#000000;fill-opacity:1;stroke:none" />
    <path
       id="path3037-7-76"
       d="m 95.749995,612.61225 c 1,4 4.999995,14 11.999995,14 9,0 13,-8 13,-18 0,-7 -2.57895,-11.61229 -5,-17 -2.57788,-5.73673 -6.37932,-10.85741 -10,-16 -4.6453,-6.5979 -14.999995,-19 -14.999995,-19 0,0 -10.3547,12.4021 -15,19 -3.62068,5.14259 -7.42212,10.26327 -10,16 -2.42105,5.38771 -5,10 -5,17 0,10 4,18 13,18 7,0 11,-10 12,-14 1,-1 1,0 1,1 -1,8 -1,10 -2,16 -1,6 -4,17 -4,17 5,-2 15,-2 19.999995,0 0,0 -2.999995,-11 -3.999995,-17 -1,-6 -1,-8 -2,-16 0,-1 0,-2 1,-1 z"
       style="display:inline;fill:#000000;fill-opacity:1;stroke:none" />
    <path
       id="path3037-7-4-18"
       d="m 275.74999,612.61225 c 1,4 5,14 12,14 9,0 13,-8 13,-18 0,-7 -2.57895,-11.61229 -5,-17 -2.57788,-5.73673 -6.37932,-10.85741 -10,-16 -4.6453,-6.5979 -15,-19 -15,-19 0,0 -10.3547,12.4021 -15,19 -3.62068,5.14259 -7.42212,10.26327 -10,16 -2.42105,5.38771 -5,10 -5,17 0,10 4,18 13,18 7,0 11,-10 12,-14 1,-1 1,0 1,1 -1,8 -1,10 -2,16 -1,6 -4,17 -4,17 5,-2 15,-2 20,0 0,0 -3,-11 -4,-17 -1,-6 -1,-8 -2,-16 0,-1 0,-2 1,-1 z"
       style="display:inline;fill:#000000;fill-opacity:1;stroke:none" />
    <path
       id="path3037-7-09-9"
       d="m 95.749995,732.61225 c 1,4 4.999995,14 11.999995,14 9,0 13,-8 13,-18 0,-7 -2.57895,-11.61229 -5,-17 -2.57788,-5.73673 -6.37932,-10.85741 -10,-16 -4.6453,-6.5979 -14.999995,-19 -14.999995,-19 0,0 -10.3547,12.4021 -15,19 -3.62068,5.14259 -7.42212,10.26327 -10,16 -2.42105,5.38771 -5,10 -5,17 0,10 4,18 13,18 7,0 11,-10 12,-14 1,-1 1,0 1,1 -1,8 -1,10 -2,16 -1,6 -4,17 -4,17 5,-2 15,-2 19.999995,0 0,0 -2.999995,-11 -3.999995,-17 -1,-6 -1,-8 -2,-16 0,-1 0,-2 1,-1 z"
       style="display:inline;fill:#000000;fill-opacity:1;stroke:none" />
    <path
       id="path3037-7-48"
       d="m 275.74999,732.61225 c 1,4 5,14 12,14 9,0 13,-8 13,-18 0,-7 -2.57895,-11.61229 -5,-17 -2.57788,-5.73673 -6.37932,-10.85741 -10,-16 -4.6453,-6.5979 -15,-19 -15,-19 0,0 -10.3547,12.4021 -15,19 -3.62068,5.14259 -7.42212,10.26327 -10,16 -2.42105,5.38771 -5,10 -5,17 0,10 4,18 13,18 7,0 11,-10 12,-14 1,-1 1,0 1,1 -1,8 -1,10 -2,16 -1,6 -4,17 -4,17 5,-2 15,-2 20,0 0,0 -3,-11 -4,-17 -1,-6 -1,-8 -2,-16 0,-1 0,-2 1,-1 z"
       style="display:inline;fill:#000000;fill-opacity:1;stroke:none" />
    <path
       id="path3037-7-8-2"
       d="m 185.74999,792.61225 c 1,4 5,14 12,14 9,0 13,-8 13,-18 0,-7 -2.57895,-11.61229 -5,-17 -2.57788,-5.73673 -6.37932,-10.85741 -10,-16 -4.6453,-6.5979 -15,-19 -15,-19 0,0 -10.3547,12.4021 -15,19 -3.62068,5.14259 -7.42212,10.26327 -10,16 -2.42105,5.38771 -5,10 -5,17 0,10 4,18 13,18 7,0 11,-10 12,-14 1,-1 1,0 1,1 -1,8 -1,10 -2,16 -1,6 -4,17 -4,17 5,-2 15,-2 20,0 0,0 -3,-11 -4,-17 -1,-6 -1,-8 -2,-16 0,-1 0,-2 1,-1 z"
       style="display:inline;fill:#000000;fill-opacity:1;stroke:none" />
    <path
       id="path3037-7-2-7"
       d="m 95.749995,830.61225 c 1,-4 4.999995,-14 11.999995,-14 9,0 13,8 13,18 0,7 -2.57895,11.61229 -5,17 -2.57788,5.73673 -6.37932,10.85741 -10,16 -4.6453,6.5979 -14.999995,19 -14.999995,19 0,0 -10.3547,-12.4021 -15,-19 -3.62068,-5.14259 -7.42212,-10.26327 -10,-16 -2.42105,-5.38771 -5,-10 -5,-17 0,-10 4,-18 13,-18 7,0 11,10 12,14 1,1 1,0 1,-1 -1,-8 -1,-10 -2,-16 -1,-6 -4,-17 -4,-17 5,2 15,2 19.999995,0 0,0 -2.999995,11 -3.999995,17 -1,6 -1,8 -2,16 0,1 0,2 1,1 z"
       style="display:inline;fill:#000000;fill-opacity:1;stroke:none" />
    <path
       id="path3037-7-45-9"
       d="m 275.74999,830.61225 c 1,-4 5,-14 12,-14 9,0 13,8 13,18 0,7 -2.57895,11.61229 -5,17 -2.57788,5.73673 -6.37932,10.85741 -10,16 -4.6453,6.5979 -15,19 -15,19 0,0 -10.3547,-12.4021 -15,-19 -3.62068,-5.14259 -7.42212,-10.26327 -10,-16 -2.42105,-5.38771 -5,-10 -5,-17 0,-10 4,-18 13,-18 7,0 11,10 12,14 1,1 1,0 1,-1 -1,-8 -1,-10 -2,-16 -1,-6 -4,-17 -4,-17 5,2 15,2 20,0 0,0 -3,11 -4,17 -1,6 -1,8 -2,16 0,1 0,2 1,1 z"
       style="display:inline;fill:#000000;fill-opacity:1;stroke:none" />
    <path
       id="path3037-7-5-5"
       d="m 95.749995,950.61227 c 1,-4 4.999995,-14 11.999995,-14 9,0 13,8 13,18 0,7 -2.57895,11.61229 -5,17 -2.57788,5.7367 -6.37932,10.8574 -10,16 -4.6453,6.5979 -14.999995,19.00003 -14.999995,19.00003 0,0 -10.3547,-12.40213 -15,-19.00003 -3.62068,-5.1426 -7.42212,-10.2633 -10,-16 -2.42105,-5.38771 -5,-10 -5,-17 0,-10 4,-18 13,-18 7,0 11,10 12,14 1,1 1,0 1,-1 -1,-8 -1,-10 -2,-16 -1,-6 -4,-17.00002 -4,-17.00002 5,2 15,2 19.999995,0 0,0 -2.999995,11.00002 -3.999995,17.00002 -1,6 -1,8 -2,16 0,1 0,2 1,1 z"
       style="display:inline;fill:#000000;fill-opacity:1;stroke:none" />
    <path
       id="path3037-7-1-4"
       d="m 275.74999,950.61227 c 1,-4 5,-14 12,-14 9,0 13,8 13,18 0,7 -2.57895,11.61229 -5,17 -2.57788,5.7367 -6.37932,10.8574 -10,16 -4.6453,6.5979 -15,19.00003 -15,19.00003 0,0 -10.3547,-12.40213 -15,-19.00003 -3.62068,-5.1426 -7.42212,-10.2633 -10,-16 -2.42105,-5.38771 -5,-10 -5,-17 0,-10 4,-18 13,-18 7,0 11,10 12,14 1,1 1,0 1,-1 -1,-8 -1,-10 -2,-16 -1,-6 -4,-17.00002 -4,-17.00002 5,2 15,2 20,0 0,0 -3,11.00002 -4,17.00002 -1,6 -1,8 -2,16 0,1 0,2 1,1 z"
       style="display:inline;fill:#000000;fill-opacity:1;stroke:none" />
  </g>
</svg>
